<svg width="42" height="24" viewBox="0 0 42 24" fill="none" xmlns="http://www.w3.org/2000/svg">
<path d="M22.5734 23.255L21.2009 6.27062C21.1738 5.93557 20.894 5.67742 20.5578 5.67742H16.8732V4.86065C16.8732 2.18047 14.7215 0 12.0412 0H11.9561C9.2759 0 7.06678 2.18047 7.06678 4.86065V5.67742H3.43951C3.10334 5.67742 2.82351 5.93557 2.79642 6.27062L1.42007 23.3029C1.40554 23.4825 1.46678 23.6599 1.58893 23.7923C1.71108 23.9246 1.88313 24 2.06317 24H21.9341H21.9359C22.2922 24 22.581 23.7112 22.581 23.3548C22.581 23.3209 22.5784 23.2875 22.5734 23.255ZM8.3571 4.86065C8.3571 2.89196 9.98738 1.29032 11.9561 1.29032H12.0412C14.0099 1.29032 15.5829 2.89196 15.5829 4.86065V5.67742H8.3571V4.86065Z" fill="#337D5A"/>
<circle cx="21.5" cy="7.5" r="7.5" fill="#93B474"/>
<path d="M24.756 7.484C24.756 8.188 24.62 8.816 24.348 9.368C24.084 9.912 23.72 10.34 23.256 10.652C22.8 10.964 22.276 11.12 21.684 11.12C21.1 11.12 20.576 10.964 20.112 10.652C19.648 10.34 19.28 9.912 19.008 9.368C18.744 8.816 18.612 8.188 18.612 7.484C18.612 6.78 18.744 6.156 19.008 5.612C19.28 5.06 19.648 4.628 20.112 4.316C20.576 3.996 21.1 3.836 21.684 3.836C22.276 3.836 22.8 3.996 23.256 4.316C23.72 4.628 24.084 5.06 24.348 5.612C24.62 6.156 24.756 6.78 24.756 7.484ZM23.412 7.484C23.412 7.004 23.34 6.584 23.196 6.224C23.052 5.856 22.848 5.572 22.584 5.372C22.32 5.164 22.02 5.06 21.684 5.06C21.34 5.06 21.036 5.164 20.772 5.372C20.508 5.572 20.3 5.856 20.148 6.224C20.004 6.584 19.932 7.004 19.932 7.484C19.932 7.964 20.004 8.384 20.148 8.744C20.3 9.104 20.508 9.388 20.772 9.596C21.036 9.796 21.34 9.896 21.684 9.896C22.02 9.896 22.316 9.796 22.572 9.596C22.836 9.388 23.04 9.104 23.184 8.744C23.336 8.384 23.412 7.964 23.412 7.484Z" fill="white"/>
</svg>
