<svg width="70" height="73" viewBox="0 0 70 73" fill="none" xmlns="http://www.w3.org/2000/svg">
<path d="M69.7738 40.2449C70.3185 43.6987 69.8343 47.0354 68.8054 50.1965C67.7765 53.5333 66.2634 56.6944 63.9635 59.5043C60.9374 63.2508 57.4875 66.529 52.8877 68.5778C51.4352 69.2218 50.0431 70.1584 48.53 70.6267C46.7143 71.2121 44.9592 71.9731 43.0224 72.0316C42.7198 72.0316 42.3566 71.9731 42.1146 72.0902C38.7858 73.378 35.2754 72.9097 31.8861 72.8512C29.9493 72.7926 28.0126 72.0316 26.0758 71.7389C22.3839 71.095 19.1156 69.4559 16.0289 67.5827C13.608 66.1777 11.3081 64.4801 9.37137 62.4312C7.43462 60.3238 5.61891 58.0993 4.22687 55.6407C2.71379 53.0064 1.68489 50.2551 0.898082 47.3281C-0.312387 43.1718 -0.00976992 38.957 0.1718 34.8008C0.292847 32.2836 1.14018 29.7664 2.10855 27.3663C4.0453 22.7417 6.8899 18.644 10.6424 15.1316C11.7318 14.1364 12.8817 13.3169 13.9711 12.3803C14.2132 12.2047 14.4553 11.8534 14.5159 11.5607C15.2421 6.8776 18.0867 3.83356 22.3234 1.72615C24.7443 0.496832 27.2863 -0.147098 30.0099 0.028519C32.1282 0.204136 34.186 0.672449 36.1227 1.66761C38.9673 3.13109 41.8725 4.53603 44.7776 5.99951C47.0775 7.11175 49.3168 8.45815 51.6773 9.33624C54.0377 10.2143 55.9744 11.912 58.5164 12.3803C60.2111 14.0779 63.1162 13.9608 64.5082 16.2439C63.7214 17.7659 61.9663 17.9415 60.6347 18.4098C57.9112 19.3464 55.1876 20.2245 52.5851 21.2197C48.9537 22.6246 45.2618 23.7954 41.6909 25.2003C39.3305 26.137 36.9095 27.0736 34.4886 27.8346C31.765 28.7127 28.9204 28.7712 26.0758 28.3614C23.5944 28.0102 21.4155 26.8394 19.5998 25.376C17.7841 23.9125 16.0895 22.1563 15.4237 19.8733C14.2738 19.1123 14.879 17.8244 14.5159 16.7707C13.0633 16.8292 12.2765 17.8244 11.5502 18.7025C9.91608 20.6928 8.22142 22.7417 6.8899 24.9662C5.0742 27.6004 4.0453 30.4689 3.56111 33.5714C3.31902 35.3276 2.89536 37.0838 2.77431 38.84C2.59274 40.7717 3.2585 42.645 3.50059 44.5768C3.80321 46.6842 4.40844 48.616 5.19525 50.5478C6.70833 54.1772 8.88718 57.3969 11.7318 60.2067C15.4237 63.8947 19.7209 66.646 24.7443 68.168C26.6811 68.7534 28.6783 69.2803 30.7967 69.5144C32.9755 69.7486 35.1544 69.9242 37.2727 69.8071C41.9935 69.4559 46.5328 68.4607 50.8299 66.2948C53.7956 64.7728 56.4586 62.9581 58.819 60.675C61.7242 57.8652 63.903 54.587 65.2345 50.8405C66.0213 48.616 66.6871 46.333 66.7476 43.9329C66.8081 42.9962 67.0502 42.1181 67.1107 41.1815C67.2318 39.601 67.7765 39.3668 69.2896 40.0107C69.4106 40.0693 69.5317 40.1278 69.6527 40.1864C69.7738 40.1864 69.7738 40.2449 69.7738 40.2449ZM17.6631 14.0779C17.2999 14.0779 16.9368 14.0779 16.4526 14.0779C16.3316 15.9512 16.9368 17.5317 17.6026 19.0537C19.1156 22.3905 21.6576 24.6735 25.2285 25.8443C27.4074 26.5467 29.7072 26.7809 31.8256 26.0784C36.3648 24.6149 40.783 22.8588 45.3223 21.3953C48.2274 20.4587 51.072 19.2293 54.0377 18.3513C56.035 17.7659 57.9112 16.8292 59.969 16.0097C59.6058 15.717 59.4243 15.4828 59.1217 15.3658C50.8905 11.4436 42.5987 7.52153 34.4281 3.48233C32.6729 2.66278 30.7967 2.37008 29.0415 2.37008C27.4679 2.37008 25.7732 2.72132 24.1391 3.42379C20.6893 4.9458 18.2683 7.11175 17.1789 10.6826C16.9368 11.5607 16.6947 12.2632 16.9368 13.2584C18.0262 13.2584 18.9946 13.2584 19.963 13.2584C20.3866 14.2535 21.5971 13.1413 22.1418 14.1364C20.5682 14.0779 19.1156 14.0779 17.6631 14.0779Z" fill="white"/>
<path d="M50.3458 48.4978C47.1986 48.5564 45.0197 47.2686 43.5066 44.6345C41.2068 40.5956 43.204 35.6786 47.8038 34.2738C51.6773 33.1031 55.6114 34.3323 57.6692 37.8444C58.3349 39.0151 58.577 40.6541 58.3954 42.0004C57.9718 44.6345 56.7008 46.9174 53.7956 47.8539C52.7062 48.2051 51.4958 48.3222 50.3458 48.4978ZM46.2907 41.1809C46.2907 43.5809 48.4091 45.6881 50.6484 45.6296C52.7667 45.5711 54.8851 43.3467 54.8851 41.1224C54.9456 38.781 53.0088 36.9664 50.5879 36.8493C48.2275 36.7908 45.9881 38.7224 46.2907 41.1809Z" fill="white"/>
<path d="M17.2999 37.2011C17.2999 38.0791 17.2999 38.723 17.2999 39.484C19.4788 39.484 21.5971 39.484 23.7154 39.484C23.897 39.8938 24.0786 40.1279 24.1391 40.3621C24.6838 42.0011 24.3207 42.528 22.626 42.528C20.8708 42.528 19.1762 42.528 17.2394 42.528C17.1789 43.3475 17.1789 44.1085 17.1184 45.1036C19.7814 45.1036 22.3839 45.1036 25.047 45.1036C25.4101 46.1573 25.2285 47.0939 25.2891 48.2647C23.2313 48.2647 21.2945 48.2647 19.3577 48.2647C17.4815 48.2647 15.6053 48.2647 13.5475 48.2647C13.5475 46.6841 13.5475 45.2207 13.5475 43.8158C13.5475 41.0645 13.5475 38.2547 13.5475 35.5035C13.5475 34.1571 13.7896 33.8644 15.0001 33.923C18.3288 34.04 21.7182 34.2157 25.168 34.3913C25.168 35.1523 25.168 35.8547 25.168 36.7913C24.5023 36.9084 23.7154 37.3181 22.9892 37.2011C21.234 36.9084 19.4183 37.4938 17.2999 37.2011Z" fill="white"/>
<path d="M40.7225 36.3229C39.9962 37.0838 39.2699 37.8447 38.6042 38.5472C35.8201 36.0887 34.0044 36.6741 32.3097 37.8447C30.3729 39.2496 30.494 42.1177 31.5834 43.5226C33.2781 45.6883 35.578 45.8054 38.5436 43.9908C39.3304 44.6932 40.1172 45.3371 40.9041 45.981C38.5436 48.6736 35.5174 48.498 32.5518 48.2053C30.615 47.9712 29.1019 46.6834 28.1941 45.0444C25.8942 40.7715 27.2862 36.6741 31.1597 34.6839C32.6123 33.923 34.2465 33.6888 35.9411 33.8644C38.6647 34.0986 39.0278 34.3327 40.7225 36.3229Z" fill="white"/>
<path d="M26.318 18.8782C26.0154 18.3514 25.6522 17.8246 25.4706 17.2392C24.4417 14.4294 23.5944 14.3709 21.5366 14.488C20.5077 14.5465 19.4183 14.488 18.3894 14.4294C18.1473 14.4294 17.9052 14.1953 17.7236 14.0197C19.1762 14.0197 20.6288 14.0197 22.2024 14.0197C21.5971 13.0245 20.4472 14.1953 20.0235 13.1416C20.9919 13.1416 21.9603 13.1416 22.9287 13.1416C24.5628 13.1416 24.7444 12.966 25.4101 11.5611C25.9548 10.2733 26.5601 8.98549 27.1653 7.69768C27.4679 7.11231 27.8916 6.64402 28.2547 6.11719C28.981 6.52695 29.1626 6.81963 28.7994 7.58061C28.0126 9.04403 27.3469 10.6245 26.6206 12.205C26.439 12.5562 26.439 12.966 26.2575 13.6099C27.9521 13.6099 29.4047 13.6099 30.9178 13.6099C31.2204 13.6099 31.523 13.8441 31.8256 13.9611C30.3731 13.9611 28.86 14.0197 27.1653 14.0197C27.9521 14.7806 29.0415 13.8441 29.5257 14.7806C28.4968 14.7806 27.4679 14.7806 26.2575 14.7806C26.4995 15.8343 26.6811 16.6538 26.8022 17.4148C25.9548 17.766 26.439 18.4685 26.318 18.8782Z" fill="white"/>
<path d="M29.5257 14.8962C29.0415 13.9596 28.0126 14.8962 27.1653 14.1352C28.8599 14.1352 30.3125 14.0766 31.8256 14.0766C32.1887 14.0766 32.6124 14.0766 32.9755 14.0766C33.8228 14.1352 34.307 13.8425 34.6096 12.9645C34.8517 12.0864 35.457 11.3254 35.8806 10.5645C36.5464 10.623 36.3648 11.1498 36.4253 11.501C36.1227 12.262 35.8806 12.9645 35.6385 13.7254C35.6385 13.784 35.8806 13.9596 35.9412 14.1352C36.3648 15.1888 37.5753 13.9596 38.12 14.9547C37.3937 14.9547 36.728 14.8962 36.0622 14.9547C35.8806 14.9547 35.6991 15.2474 35.5175 15.423C35.8201 16.301 36.1227 17.1791 36.4253 17.9986C36.4253 18.4084 36.4253 18.8181 36.4253 19.2864C36.0622 19.1108 35.8201 18.9937 35.578 18.8766C35.2149 17.9401 34.9728 16.9449 34.5491 16.0669C34.186 15.3059 33.5808 14.8376 32.5519 14.8962C31.4624 15.0132 30.4941 14.9547 29.5257 14.8962Z" fill="white"/>
<path d="M35.3965 15.4246C35.5781 15.2489 35.7596 14.9561 35.9412 14.9561C36.6069 14.8975 37.2122 14.9561 37.999 14.9561C37.4543 13.9605 36.2438 15.1317 35.8201 14.0776C38.3621 14.1948 40.9646 14.3119 43.5066 14.429C43.3855 15.5417 42.1751 14.429 41.8725 15.1903C42.2961 15.7759 43.325 14.8389 43.5066 15.8345C40.8436 15.7174 38.12 15.6002 35.3965 15.4246Z" fill="white"/>
<path d="M47.6826 14.9556C49.2562 15.0726 50.9509 14.7214 52.6456 15.3068C51.7377 16.2433 51.1325 16.5359 50.1036 16.2433C48.4089 15.7165 46.7143 16.0091 45.0196 15.8921C44.838 15.8921 44.717 15.8921 44.5354 15.8921C44.5354 15.5994 44.5354 15.3068 44.5354 15.0141C45.5643 14.9556 46.5932 14.9556 47.6826 14.9556Z" fill="white"/>
<path d="M26.3179 18.8782C26.4389 18.4099 25.9547 17.7659 26.802 17.5317C27.1047 18.0586 27.4073 18.5855 27.6494 19.1709C27.952 19.932 28.1941 20.7515 28.4967 21.6882C28.0125 21.9224 27.5283 22.2736 27.1652 21.454C26.8626 20.6345 26.1363 19.932 26.3179 18.8782Z" fill="white"/>
<path d="M47.6827 14.9556C46.5932 14.9556 45.5643 14.9556 44.4749 14.9556C44.4749 14.5459 44.5354 14.0777 43.9302 14.0192C44.0512 13.6095 44.1118 12.9072 44.2933 12.8487C45.1407 12.6731 44.6565 12.322 44.5354 11.9708C44.4749 11.8538 44.717 11.6197 44.838 11.5026C44.8986 11.4441 45.1407 11.5612 45.2012 11.6782C46.0485 12.6146 45.5038 13.4925 44.9591 14.3118C45.8064 14.9556 46.9564 14.0192 47.6827 14.9556Z" fill="white"/>
<path d="M44.4749 15.834C44.6565 15.834 44.7775 15.834 44.9591 15.834C45.2617 16.7119 45.5643 17.5313 45.8064 18.4093C45.8669 18.6434 45.6853 19.1702 45.4432 19.2872C45.0801 19.4628 44.5959 19.4043 44.4749 18.7605C44.3539 18.0581 44.1118 17.4143 43.9907 16.7119C44.5959 16.6534 44.4749 16.1852 44.4749 15.834Z" fill="white"/>
<path d="M44.475 15.8347C44.475 16.186 44.596 16.6545 43.9908 16.713C43.8697 16.4202 43.6882 16.1275 43.5671 15.8347C43.325 14.8393 42.3566 15.7176 41.933 15.1906C42.2356 14.4294 43.4461 15.5419 43.5671 14.4294C43.6882 14.2537 43.8092 14.1366 43.9908 13.9609C44.596 14.0195 44.5355 14.4879 44.5355 14.8978C44.475 15.2491 44.475 15.5419 44.475 15.8347Z" fill="white"/>
<path d="M36.3042 11.5016C36.2437 11.0919 36.4253 10.6237 35.7595 10.5652C35.9411 10.097 36.0621 9.62878 36.3042 9.16057C36.6674 8.57532 37.1516 8.69237 37.6963 9.2191C37.2726 9.9214 36.7884 10.7408 36.3042 11.5016Z" fill="white"/>
<path d="M35.457 18.8781C35.6991 18.9951 35.9412 19.1122 36.3043 19.2878C36.3043 18.8195 36.3043 18.4098 36.3043 18C36.607 18.5854 36.9701 19.1707 37.1517 19.8147C37.2122 20.0488 36.9701 20.5171 36.728 20.5756C36.4859 20.6342 36.0017 20.4586 35.8807 20.2244C35.6386 19.8732 35.5781 19.3464 35.457 18.8781Z" fill="white"/>
</svg>
