<svg width="13" height="14" viewBox="0 0 13 14" fill="none" xmlns="http://www.w3.org/2000/svg">
<g clip-path="url(#clip0_285_62)">
<path d="M3.42623 7.23728H4.85124V13.1038C4.85124 13.2196 4.94509 13.3135 5.06092 13.3135H7.47707C7.5929 13.3135 7.68675 13.2196 7.68675 13.1038V7.26491H9.32492C9.43143 7.26491 9.52105 7.18498 9.53321 7.07918L9.78201 4.91942C9.78885 4.86 9.77002 4.80049 9.73027 4.75591C9.69047 4.71129 9.63352 4.68575 9.57376 4.68575H7.68683V3.33191C7.68683 2.92379 7.90658 2.71684 8.34002 2.71684C8.40179 2.71684 9.57376 2.71684 9.57376 2.71684C9.68959 2.71684 9.78344 2.62295 9.78344 2.50716V0.524706C9.78344 0.40888 9.68959 0.315028 9.57376 0.315028H7.87349C7.86149 0.314441 7.83487 0.313477 7.79561 0.313477C7.5006 0.313477 6.47515 0.371389 5.66512 1.11658C4.76762 1.94238 4.89238 2.93113 4.92219 3.10256V4.68571H3.42623C3.3104 4.68571 3.21655 4.77956 3.21655 4.89539V7.02756C3.21655 7.14338 3.3104 7.23728 3.42623 7.23728Z" fill="#93B474"/>
</g>
<defs>
<clipPath id="clip0_285_62">
<rect width="13" height="13" fill="white" transform="translate(0 0.313477)"/>
</clipPath>
</defs>
</svg>
