<svg width="31" height="32" viewBox="0 0 31 32" fill="none" xmlns="http://www.w3.org/2000/svg">
<circle cx="15.5" cy="15.8135" r="15.5" fill="#337D5A"/>
<g clip-path="url(#clip0_285_118)">
<path d="M18.2704 22.5749C18.161 22.5749 18.0524 22.5425 17.9593 22.4793L14.4391 20.0915L12.5511 21.4501C12.403 21.5565 12.2122 21.5834 12.0402 21.5219C11.8685 21.4603 11.7381 21.318 11.6915 21.1417L10.7435 17.549L7.35623 16.2538C7.14299 16.1722 7.00156 15.9682 7.00001 15.7399C6.99846 15.5116 7.13708 15.3057 7.34929 15.2212L20.2291 10.0963C20.2875 10.0714 20.3493 10.0571 20.4117 10.0533C20.434 10.0519 20.4564 10.0519 20.4787 10.0532C20.6078 10.0609 20.7347 10.1135 20.8337 10.2106C20.844 10.2206 20.8537 10.2309 20.8629 10.2416C20.945 10.3353 20.99 10.4495 20.9985 10.5659C21.0006 10.5952 21.0005 10.6248 20.9979 10.6544C20.9961 10.6755 20.9931 10.6966 20.9888 10.7175L18.8147 22.1245C18.7798 22.3077 18.6551 22.4611 18.4828 22.5325C18.4144 22.5609 18.3422 22.5749 18.2704 22.5749ZM14.7482 18.9619L17.8838 21.0888L19.5754 12.213L13.4658 18.092L14.7334 18.9519C14.7385 18.9551 14.7434 18.9585 14.7482 18.9619ZM12.1379 18.489L12.5577 20.0798L13.4623 19.4289L12.2778 18.6254C12.2228 18.5882 12.1757 18.5418 12.1379 18.489ZM9.07896 15.7258L11.4048 16.6151C11.5715 16.6787 11.6972 16.8188 11.7427 16.9913L12.0377 18.1092C12.0512 17.9802 12.1097 17.8589 12.2046 17.7675L18.0263 12.1657L9.07896 15.7258Z" fill="white"/>
</g>
<defs>
<clipPath id="clip0_285_118">
<rect width="14" height="14" fill="white" transform="translate(7 9.31348)"/>
</clipPath>
</defs>
</svg>
