<svg width="13" height="14" viewBox="0 0 13 14" fill="none" xmlns="http://www.w3.org/2000/svg">
<g clip-path="url(#clip0_285_65)">
<path d="M9.48744 0.313477H3.51256C1.57574 0.313477 0 1.88922 0 3.82604V9.80091C0 11.7377 1.57574 13.3135 3.51256 13.3135H9.48744C11.4243 13.3135 13 11.7377 13 9.80091V3.82604C13 1.88922 11.4243 0.313477 9.48744 0.313477ZM11.9497 9.80091C11.9497 11.1586 10.8452 12.2632 9.48744 12.2632H3.51256C2.15485 12.2632 1.05026 11.1587 1.05026 9.80091V3.82604C1.05026 2.46833 2.15483 1.36373 3.51256 1.36373H9.48744C10.8451 1.36373 11.9497 2.4683 11.9497 3.82604V9.80091Z" fill="#323232"/>
<path d="M9.40936 6.36007C9.31694 5.73681 9.03259 5.17192 8.58706 4.72639C8.14153 4.28088 7.57664 3.99651 6.9534 3.90411C6.66964 3.86204 6.38194 3.86204 6.0982 3.90411C5.32795 4.01835 4.64832 4.42566 4.18445 5.05106C3.72059 5.67645 3.52801 6.44508 3.64224 7.21528C3.75647 7.9855 4.16379 8.66514 4.78918 9.12902C5.29689 9.50559 5.89891 9.70333 6.51963 9.70333C6.66352 9.70333 6.80845 9.69272 6.95338 9.67121C7.72363 9.55698 8.40326 9.14967 8.86712 8.52427C9.33101 7.8989 9.5236 7.1303 9.40936 6.36007ZM6.79933 8.63231C6.30663 8.70548 5.81494 8.58221 5.41486 8.28547C5.01478 7.98873 4.75422 7.55394 4.68117 7.06123C4.6081 6.56853 4.73127 6.07684 5.02801 5.67676C5.32477 5.27668 5.75954 5.01612 6.25227 4.94305C6.34301 4.92959 6.43439 4.92286 6.52578 4.92286C6.61716 4.92286 6.70856 4.92959 6.79931 4.94307C7.61767 5.06441 8.24906 5.69578 8.37043 6.51417C8.52125 7.53127 7.81648 8.48148 6.79933 8.63231Z" fill="#323232"/>
<path d="M10.1575 3.15601C10.0597 3.05823 9.92432 3.0022 9.78614 3.0022C9.64797 3.0022 9.51261 3.05821 9.4148 3.15601C9.31702 3.25382 9.26099 3.38895 9.26099 3.52735C9.26099 3.66576 9.31702 3.80089 9.4148 3.89869C9.51261 3.99647 9.64797 4.05251 9.78614 4.05251C9.92432 4.05251 10.0597 3.9965 10.1575 3.89869C10.2553 3.80089 10.3113 3.66553 10.3113 3.52735C10.3113 3.38915 10.2553 3.25379 10.1575 3.15601Z" fill="#323232"/>
</g>
<defs>
<clipPath id="clip0_285_65">
<rect width="13" height="13" fill="white" transform="translate(0 0.313477)"/>
</clipPath>
</defs>
</svg>
