<svg width="31" height="32" viewBox="0 0 31 32" fill="none" xmlns="http://www.w3.org/2000/svg">
<circle cx="15.5" cy="15.8135" r="15.5" fill="#337D5A"/>
<g clip-path="url(#clip0_285_123)">
<path d="M23 15.6205C23 19.6558 19.7033 22.9271 15.6357 22.9271C14.3449 22.9271 13.1324 22.5969 12.0769 22.0188L8 23.3135L9.32895 19.3922C8.65885 18.2916 8.27293 16.9994 8.27293 15.62C8.27342 11.5847 11.5691 8.31348 15.6367 8.31348C19.7038 8.31445 23 11.5852 23 15.6205ZM15.6352 9.47857C12.2216 9.47857 9.44488 12.2343 9.44488 15.622C9.44488 16.9661 9.88313 18.2104 10.6242 19.2229L9.85134 21.5037L12.2295 20.748C13.2077 21.3897 14.3782 21.7634 15.6352 21.7634C19.0488 21.7634 21.8266 19.0082 21.8266 15.6205C21.8276 12.2343 19.0493 9.47857 15.6352 9.47857ZM19.3546 17.3036C19.3086 17.2297 19.1882 17.1847 19.0083 17.0947C18.8287 17.0047 17.94 16.5719 17.7752 16.5132C17.6089 16.453 17.4885 16.4227 17.3682 16.6022C17.2494 16.7817 16.9031 17.1847 16.7969 17.3051C16.6918 17.4249 16.5866 17.4401 16.4061 17.3515C16.2256 17.2606 15.6436 17.0727 14.9539 16.4628C14.4173 15.9874 14.0549 15.4019 13.9502 15.2224C13.8441 15.0433 13.9394 14.9465 14.029 14.8575C14.1097 14.7768 14.2094 14.6481 14.2999 14.543C14.3904 14.4388 14.4203 14.3649 14.4804 14.2451C14.5396 14.1253 14.5098 14.0211 14.4653 13.9306C14.4203 13.8406 14.0598 12.9602 13.9086 12.6016C13.7585 12.2436 13.6083 12.3028 13.5027 12.3028C13.3975 12.3028 13.2772 12.2881 13.1568 12.2881C13.0365 12.2881 12.8409 12.3316 12.676 12.5111C12.5112 12.6907 12.0446 13.1235 12.0446 14.0049C12.0446 14.8873 12.6907 15.7379 12.7812 15.8573C12.8722 15.9761 14.0304 17.8441 15.8651 18.5611C17.7008 19.2777 17.7008 19.0385 18.0315 19.0082C18.3631 18.9779 19.0997 18.5753 19.2494 18.1576C19.4 17.7379 19.4 17.3784 19.3546 17.3036Z" fill="white"/>
</g>
<defs>
<clipPath id="clip0_285_123">
<rect width="15" height="15" fill="white" transform="translate(8 8.31348)"/>
</clipPath>
</defs>
</svg>
