<svg width="16" height="17" viewBox="0 0 16 17" fill="none" xmlns="http://www.w3.org/2000/svg">
<path d="M15.3764 12.977C14.7988 13.6636 13.7325 13.9436 11.6961 13.9436H4.30379C2.22075 13.9436 1.13636 13.6455 0.560981 12.9145C0 12.2019 0 11.1518 0 9.69849V6.92848C0 4.11295 0.6656 2.68342 4.30379 2.68342H11.6961C13.4621 2.68342 14.4407 2.93054 15.0738 3.53643C15.723 4.15775 16 5.1722 16 6.92848V9.69849C16 11.2311 15.9566 12.2874 15.3764 12.977ZM10.2721 7.93106L6.91525 6.17669C6.84021 6.13746 6.75814 6.118 6.67618 6.118C6.58338 6.118 6.49079 6.14298 6.40877 6.19264C6.25435 6.28621 6.16005 6.45359 6.16005 6.63413V10.1316C6.16005 10.3119 6.25409 10.4791 6.40821 10.5727C6.56237 10.6663 6.75412 10.6727 6.91406 10.5896L10.2709 8.84657C10.4417 8.7579 10.5489 8.58159 10.5492 8.38923C10.5494 8.19671 10.4426 8.02015 10.2721 7.93106Z" fill="#323232"/>
</svg>
