<svg width="31" height="32" viewBox="0 0 31 32" fill="none" xmlns="http://www.w3.org/2000/svg">
<circle cx="15.5" cy="15.8135" r="15.5" fill="#337D5A"/>
<g clip-path="url(#clip0_285_108)">
<g clip-path="url(#clip1_285_108)">
<path d="M11.8107 25.3126C11.8107 25.1925 11.8107 25.0816 11.8107 24.9692C11.8107 24.1039 11.8091 23.2371 11.8123 22.3717C11.8123 22.2732 11.7789 22.2162 11.6869 22.1839C11.5107 22.1208 11.3361 22.0515 11.1567 21.9945C10.0916 21.6588 9.35831 20.9598 8.84403 20.0206C8.56308 19.5048 8.39323 18.952 8.26308 18.3854C8.05196 17.4677 7.97895 16.5378 8.00435 15.5985C8.02181 14.9919 8.0726 14.3883 8.16625 13.7894C8.23927 13.3167 8.30593 12.8409 8.41546 12.3744C8.6726 11.2842 9.2853 10.4143 10.2091 9.75068C10.7758 9.3442 11.4059 9.05935 12.0726 8.84687C12.617 8.67288 13.1774 8.55894 13.744 8.47272C14.552 8.34954 15.3647 8.29257 16.1805 8.31875C16.6789 8.33568 17.1789 8.3711 17.6758 8.41883C18.3821 8.48658 19.0821 8.59744 19.7694 8.7745C20.4282 8.94387 21.0551 9.18715 21.6313 9.54436C22.6329 10.1633 23.2551 11.0456 23.5599 12.1511C23.752 12.8471 23.8789 13.5553 23.944 14.2728C24.0139 15.0411 24.0155 15.8095 23.9678 16.5793C23.9393 17.0351 23.9028 17.4893 23.8218 17.9389C23.6647 18.815 23.398 19.6541 22.9377 20.4271C22.5901 21.0091 22.0932 21.451 21.4932 21.7851C20.9694 22.0761 20.4043 22.2624 19.8186 22.3902C19.3551 22.4918 18.8869 22.5519 18.4139 22.5888C17.3488 22.6689 16.2837 22.7012 15.2155 22.7289C15.1805 22.7305 15.1345 22.7443 15.1123 22.769C14.471 23.4495 13.7853 24.0885 13.1075 24.7337C12.917 24.9153 12.725 25.097 12.5297 25.2756C12.5075 25.2972 12.4694 25.3111 12.4377 25.3111C12.2313 25.3141 12.025 25.3126 11.8107 25.3126ZM12.571 24.1917C12.5964 24.1686 12.6123 24.1563 12.625 24.1424C12.852 23.9268 13.0821 23.7159 13.3059 23.4957C13.717 23.0923 14.125 22.6858 14.5297 22.2747C14.7123 22.09 14.9313 21.996 15.1901 21.9868C15.9456 21.9576 16.7012 21.9345 17.4551 21.9052C18.0758 21.8806 18.6948 21.8375 19.3075 21.7328C19.9043 21.6311 20.4805 21.471 21.0186 21.1954C21.6186 20.889 22.0853 20.4517 22.3901 19.862C22.7488 19.1676 22.9758 18.4316 23.0948 17.6633C23.1869 17.0643 23.2218 16.4608 23.2345 15.8572C23.2535 15.0288 23.2028 14.2035 23.0583 13.386C22.9789 12.9379 22.8821 12.4945 22.7361 12.0633C22.498 11.3581 22.0837 10.7731 21.4647 10.3296C20.9694 9.97548 20.417 9.73375 19.8313 9.55976C19.3409 9.41503 18.8393 9.3211 18.3345 9.24566C17.8123 9.16867 17.2885 9.10862 16.7631 9.07783C16.0139 9.03318 15.2647 9.04087 14.517 9.1194C13.9345 9.17945 13.3583 9.26721 12.7916 9.41041C12.098 9.58439 11.4409 9.83845 10.8377 10.2188C9.95673 10.7746 9.38212 11.5445 9.15831 12.5422C9.05514 13.001 8.98847 13.4691 8.91546 13.9341C8.82815 14.5022 8.78054 15.0735 8.76625 15.6463C8.7472 16.3422 8.78847 17.0351 8.90752 17.7218C8.99165 18.2037 9.10434 18.6795 9.27577 19.1399C9.47736 19.6772 9.7599 20.1669 10.1837 20.5718C10.4805 20.8551 10.8123 21.0861 11.2139 21.2154C11.4536 21.2924 11.6885 21.3863 11.925 21.4772C12.098 21.5434 12.2583 21.6311 12.3789 21.7743C12.525 21.9468 12.5726 22.1485 12.5726 22.3671C12.5726 22.9507 12.5726 23.5327 12.5726 24.1162C12.571 24.1362 12.571 24.1578 12.571 24.1917Z" fill="white"/>
<path d="M18.4193 20.508C18.2748 20.5064 18.0971 20.4633 17.9256 20.3925C16.7193 19.8967 15.6002 19.2593 14.5955 18.4401C13.6336 17.6564 12.8304 16.7403 12.1669 15.7056C11.7796 15.1036 11.4844 14.4615 11.2288 13.7994C11.1796 13.6732 11.1129 13.5515 11.0875 13.4207C10.9685 12.8048 11.2034 12.3259 11.7129 11.9626C11.9368 11.804 12.1907 11.7054 12.4621 11.6515C12.7225 11.5992 12.9431 11.687 13.1304 11.8579C13.5002 12.1935 13.8193 12.5707 14.0844 12.9896C14.2082 13.1836 14.3209 13.3853 14.4272 13.5885C14.586 13.8918 14.5304 14.149 14.2669 14.3753C14.1669 14.46 14.0606 14.5385 13.959 14.6217C13.6114 14.9096 13.532 15.196 13.7002 15.6086C13.951 16.2276 14.3431 16.7495 14.8637 17.1822C15.2621 17.5132 15.7098 17.7642 16.1939 17.9551C16.5368 18.0906 16.8352 17.9659 17.0447 17.6749C17.1415 17.5394 17.2415 17.4101 17.3828 17.3162C17.6431 17.1437 17.9209 17.1437 18.2066 17.2422C18.3987 17.3085 18.5685 17.4162 18.7304 17.5333C19.1034 17.8027 19.4812 18.0691 19.8495 18.3447C20.0209 18.4725 20.1495 18.6357 20.1828 18.8528C20.205 19.0083 20.1653 19.1546 20.1034 19.2962C19.8875 19.7797 19.5256 20.1277 19.0383 20.354C18.7891 20.4757 18.6542 20.508 18.4193 20.508Z" fill="white"/>
<path d="M16.4639 10.8987C17.621 10.9048 18.6734 11.3421 19.5115 12.2367C20.0765 12.8418 20.4131 13.5562 20.5258 14.3661C20.5924 14.8373 20.5702 15.3069 20.4654 15.7719C20.4258 15.9489 20.3051 16.0613 20.1385 16.0752C19.9623 16.0891 19.7988 15.9998 19.7353 15.855C19.7004 15.7734 19.7051 15.6903 19.7226 15.6056C19.9242 14.6417 19.7448 13.7518 19.1416 12.9588C18.5892 12.2336 17.84 11.8071 16.9194 11.6732C16.5004 11.6116 16.0861 11.6377 15.6718 11.724C15.4686 11.7655 15.2861 11.6439 15.2416 11.4453C15.194 11.2405 15.3019 11.0573 15.5051 11.008C15.7908 10.9372 16.0813 10.9079 16.4639 10.8987Z" fill="white"/>
<path d="M19.4381 14.9358C19.4206 15.0836 19.4079 15.2561 19.3809 15.427C19.3492 15.6272 19.1778 15.7411 18.9587 15.7165C18.7555 15.6934 18.6159 15.5363 18.6301 15.3392C18.6397 15.2037 18.6651 15.0682 18.6666 14.9312C18.6778 13.9673 18.0397 13.122 17.0889 12.8418C16.7539 12.7433 16.4111 12.7202 16.0651 12.7787C15.7095 12.8403 15.5508 12.5293 15.6206 12.2968C15.6619 12.1628 15.7587 12.0797 15.8984 12.0566C16.9381 11.8933 17.8381 12.1705 18.5809 12.8942C19.0413 13.3422 19.3095 13.8904 19.4 14.517C19.419 14.6479 19.4254 14.7788 19.4381 14.9358Z" fill="white"/>
<path d="M16.413 13.1189C17.3368 13.1313 18.1384 13.8164 18.2622 14.6941C18.2781 14.8096 18.2892 14.9297 18.2749 15.0436C18.2495 15.2407 18.0797 15.3531 17.8606 15.3361C17.6686 15.3223 17.5273 15.1791 17.5241 14.9882C17.5226 14.7572 17.467 14.5416 17.3321 14.3507C17.1019 14.0258 16.7813 13.8642 16.3749 13.8565C16.2114 13.8534 16.0845 13.7887 16.0241 13.6378C15.9638 13.4854 15.9845 13.3422 16.1019 13.2206C16.1908 13.1328 16.3019 13.1128 16.413 13.1189Z" fill="white"/>
</g>
</g>
<defs>
<clipPath id="clip0_285_108">
<rect width="17" height="17" fill="white" transform="translate(7 8.31348)"/>
</clipPath>
<clipPath id="clip1_285_108">
<rect width="16" height="17" fill="white" transform="translate(8 8.31348)"/>
</clipPath>
</defs>
</svg>
