<svg width="16" height="17" viewBox="0 0 16 17" fill="none" xmlns="http://www.w3.org/2000/svg">
<path d="M15.7996 8.12594C16.0896 7.80695 16.0616 7.31804 15.737 7.03421L8.58642 0.777389C8.26186 0.493557 7.7415 0.499503 7.42377 0.790793L0.248846 7.3678C-0.0688876 7.65909 -0.0844821 8.14737 0.214319 8.45796L0.394204 8.6453C0.69264 8.95589 1.17503 8.99292 1.47096 8.72776L2.00717 8.24757V15.2778C2.00717 15.7091 2.35667 16.0583 2.78769 16.0583H5.58449C6.01551 16.0583 6.365 15.7091 6.365 15.2778V10.3595H9.93236V15.2778C9.92615 15.7088 10.2345 16.058 10.6656 16.058H13.6295C14.0605 16.058 14.41 15.7088 14.41 15.2774V8.34656C14.41 8.34656 14.5581 8.47632 14.7408 8.63691C14.9232 8.79718 15.3063 8.66867 15.5963 8.34937L15.7996 8.12594Z" fill="#337D5A"/>
</svg>
