<svg width="16" height="17" viewBox="0 0 16 17" fill="none" xmlns="http://www.w3.org/2000/svg">
<path d="M14.926 5.53402C14.5392 5.2781 14.2607 4.87668 14.3095 4.48304C14.4817 3.09363 13.55 1.90693 12.0439 1.69041C11.7765 1.6519 11.5102 1.54698 11.2691 1.42896C10.8147 1.20638 10.3412 1.12441 9.85155 1.24922C9.58713 1.31668 9.42443 1.28657 9.21428 1.11269C8.01548 0.120665 6.13669 0.475209 5.54936 1.82164C5.38075 2.20835 5.1314 2.43406 4.74047 2.58118C4.65319 2.61405 4.5574 2.65114 4.4954 2.71184C4.30026 2.90285 4.1143 2.85572 3.87789 2.76381C2.35173 2.16968 0.708183 3.14731 0.644574 4.65914C0.635544 4.87508 0.537573 5.10951 0.410847 5.2957C-0.0428307 5.96285 -0.123051 6.63213 0.181497 7.32559C-0.0378073 7.82629 0.153452 8.45057 0.693637 8.81271C1.28637 9.21021 1.96989 9.00279 2.49371 8.61802C2.64198 8.60515 2.79286 8.57769 2.9469 8.53459C3.25483 8.44828 3.53285 8.34519 3.79249 8.46011C3.8336 8.48803 3.87585 8.51284 3.91872 8.53574C3.93019 8.54448 3.94162 8.55264 3.95306 8.56239C3.95457 8.56022 3.95583 8.55847 3.95734 8.55631C4.04283 8.59847 4.13149 8.63041 4.22229 8.65478C4.72601 10.2819 5.80885 11.707 7.29584 12.7171C7.2052 13.7123 6.91535 14.688 6.37529 15.6442C5.77248 15.981 5.03706 15.7374 4.40584 15.5777C3.84781 15.4364 3.30448 15.3844 2.74735 15.5468C2.63205 15.5805 2.57837 15.6638 2.5727 15.7502C2.57196 15.7526 2.57082 15.7545 2.57017 15.757C2.52792 15.923 2.48567 16.0889 2.44341 16.2548C2.40394 16.41 2.52629 16.5163 2.65893 16.5372C2.67967 16.5421 2.70167 16.5454 2.72608 16.5454H13.0367C13.1271 16.5454 13.1914 16.5091 13.2313 16.4576C13.2907 16.4152 13.3301 16.3502 13.3301 16.2772V15.9324C13.3301 15.8304 13.2536 15.743 13.1512 15.7139C13.1121 15.6837 13.0605 15.6643 12.9947 15.6643H9.87925C9.72448 15.5009 9.56691 15.3358 9.40422 15.1726C8.95156 14.7182 8.75188 14.2126 8.95535 13.6008C9.02601 13.3883 9.07693 13.1673 9.10633 12.9468C9.1932 12.2934 9.27444 11.6368 9.35682 10.9707C10.4025 10.8797 11.348 10.4722 12.0821 9.7808C12.3866 9.78012 12.66 9.6976 12.8879 9.55749L12.9794 9.53152C13.4762 9.89792 14.2425 9.93572 14.8214 9.74035C15.3578 9.55932 15.8217 9.06895 15.8379 8.52986C15.8394 8.47938 15.8366 8.42941 15.8319 8.37987C16.2495 7.39693 15.8676 6.15717 14.926 5.53402ZM5.83169 8.49516C5.8376 8.4931 5.8425 8.49146 5.84839 8.48941C5.95641 8.45183 6.14465 8.49493 6.24185 8.56397C6.3789 8.66143 6.50852 8.76762 6.63528 8.87564C6.6378 8.88482 6.63793 8.89333 6.64107 8.90277C6.83458 9.4938 7.02812 10.085 7.2216 10.676C7.26776 10.9739 7.29716 11.2698 7.31313 11.5643C6.3119 10.8118 5.76416 9.69453 5.83169 8.49516ZM9.58793 10.2035C9.6332 10.1044 9.67856 10.0054 9.72575 9.90677C9.74146 9.90677 9.7573 9.90677 9.77302 9.90665C9.77302 9.87251 9.77388 9.83826 9.77515 9.80393C9.90428 9.53927 10.0454 9.28046 10.2038 9.03315C10.4056 9.19576 10.6158 9.34184 10.8398 9.46099C10.4648 9.7639 10.0445 10.0126 9.58793 10.2035Z" fill="#337D5A"/>
</svg>
