<svg width="15" height="16" viewBox="0 0 15 16" fill="none" xmlns="http://www.w3.org/2000/svg">
<g clip-path="url(#clip0_285_103)">
<path d="M1.4397 5.55346C1.62945 5.68735 2.20142 6.08503 3.15564 6.74627C4.1099 7.40752 4.84092 7.91666 5.34874 8.27372C5.40453 8.31286 5.52307 8.39795 5.7044 8.52909C5.88576 8.66032 6.03646 8.76636 6.15637 8.84725C6.27637 8.92811 6.42144 9.01882 6.59172 9.11924C6.76194 9.21956 6.9224 9.29503 7.07307 9.34499C7.22376 9.39535 7.36326 9.4203 7.49159 9.4203H7.5H7.50844C7.63677 9.4203 7.77632 9.39533 7.92702 9.34499C8.07763 9.29503 8.23823 9.21947 8.40831 9.11924C8.57847 9.0187 8.72354 8.92808 8.84354 8.84725C8.96354 8.76636 9.11412 8.66032 9.29554 8.52909C9.47684 8.39783 9.59552 8.31286 9.65132 8.27372C10.1646 7.91666 11.4705 7.00981 13.5687 5.55328C13.976 5.2688 14.3164 4.92555 14.5897 4.52374C14.8633 4.12211 15 3.70077 15 3.25997C15 2.89162 14.8674 2.5763 14.6023 2.31405C14.3372 2.05174 14.0233 1.92065 13.6607 1.92065H1.33923C0.909571 1.92065 0.578919 2.06572 0.347334 2.35586C0.115778 2.64605 0 3.00877 0 3.444C0 3.79556 0.153511 4.17652 0.460385 4.58666C0.76723 4.99682 1.09378 5.31911 1.4397 5.55346Z" fill="#337D5A"/>
<path d="M14.1628 6.44916C12.3327 7.68788 10.943 8.65058 9.99446 9.33704C9.67638 9.57132 9.41835 9.75421 9.22019 9.88526C9.02203 10.0164 8.75849 10.1503 8.42918 10.287C8.1 10.4238 7.79321 10.4921 7.50856 10.4921H7.50003H7.49161C7.20702 10.4921 6.90006 10.4238 6.57087 10.287C6.24169 10.1503 5.97797 10.0164 5.77987 9.88526C5.58182 9.75421 5.3237 9.57132 5.00566 9.33704C4.25227 8.78462 2.86557 7.82187 0.84551 6.44916C0.527348 6.23724 0.245541 5.99434 0 5.72095V12.367C0 12.7355 0.131082 13.0506 0.393393 13.3129C0.655645 13.5753 0.970992 13.7064 1.33932 13.7064H13.6608C14.029 13.7064 14.3444 13.5753 14.6066 13.3129C14.869 13.0506 15 12.7355 15 12.367V5.72095C14.76 5.98868 14.4811 6.23158 14.1628 6.44916Z" fill="#337D5A"/>
</g>
<defs>
<clipPath id="clip0_285_103">
<rect width="15" height="15" fill="white" transform="translate(0 0.313477)"/>
</clipPath>
</defs>
</svg>
