<svg width="14" height="15" viewBox="0 0 14 15" fill="none" xmlns="http://www.w3.org/2000/svg">
<g clip-path="url(#clip0_285_131)">
<path d="M13.9709 11.1609C13.9313 11.0416 13.6793 10.8658 13.2152 10.634C13.0895 10.561 12.9104 10.4617 12.6786 10.3357C12.4466 10.2097 12.236 10.0937 12.0472 9.98759C11.858 9.88155 11.6808 9.77881 11.5152 9.67952C11.4887 9.65964 11.4058 9.60172 11.2666 9.50539C11.1273 9.40934 11.0098 9.33805 10.9135 9.29156C10.8174 9.24535 10.7229 9.22208 10.6301 9.22208C10.4975 9.22208 10.332 9.3166 10.1332 9.50539C9.93441 9.69443 9.75206 9.89976 9.58643 10.122C9.42076 10.3442 9.24506 10.5495 9.05965 10.7384C8.87396 10.9274 8.72138 11.0219 8.60221 11.0219C8.54238 11.0219 8.46778 11.0052 8.37838 10.9723C8.28902 10.9391 8.22104 10.9108 8.17437 10.8879C8.12812 10.8645 8.04875 10.8183 7.93599 10.7484C7.82301 10.6788 7.76018 10.6407 7.74695 10.634C6.83886 10.1301 6.06005 9.55342 5.41037 8.90402C4.7609 8.25423 4.18411 7.47549 3.68035 6.56729C3.67373 6.55403 3.63553 6.49102 3.56598 6.3784C3.49633 6.26567 3.4499 6.18623 3.42671 6.1397C3.40352 6.09335 3.37534 6.02537 3.34226 5.9359C3.30917 5.84643 3.29256 5.7719 3.29256 5.71217C3.29256 5.59293 3.38704 5.44039 3.57597 5.25477C3.76487 5.06925 3.97041 4.89352 4.1924 4.72792C4.41455 4.56232 4.61989 4.37997 4.80885 4.18119C4.99775 3.9823 5.0922 3.81666 5.0922 3.68412C5.0922 3.59137 5.069 3.49682 5.02265 3.40074C4.97626 3.30444 4.90501 3.18694 4.80885 3.04767C4.71266 2.90847 4.65468 2.82569 4.63476 2.79905C4.53543 2.63345 4.4328 2.45615 4.32662 2.26722C4.22043 2.07832 4.10453 1.86776 3.97853 1.63579C3.85263 1.40391 3.75327 1.22487 3.68028 1.09894C3.44841 0.635025 3.27278 0.383024 3.15343 0.343392C3.10701 0.323506 3.03736 0.313477 2.94465 0.313477C2.76557 0.313477 2.53196 0.346561 2.24363 0.41294C1.95521 0.479214 1.72824 0.548726 1.56251 0.621757C1.23107 0.760887 0.879778 1.16522 0.508532 1.83461C0.170476 2.45758 0.00146484 3.07417 0.00146484 3.68394C0.00146484 3.86277 0.0130619 4.03676 0.0362561 4.20595C0.0594502 4.37496 0.100893 4.56556 0.16062 4.77772C0.220242 4.98981 0.268337 5.14737 0.304695 5.24996C0.341088 5.35263 0.409034 5.53655 0.508497 5.80178C0.607821 6.06695 0.667548 6.22927 0.687433 6.28893C0.91941 6.93857 1.1945 7.51853 1.51264 8.02898C2.03607 8.87741 2.75039 9.75422 3.65517 10.6591C4.55998 11.5639 5.43663 12.2781 6.28513 12.8018C6.7955 13.1199 7.37567 13.3949 8.02521 13.6271C8.0849 13.6469 8.24723 13.7065 8.51229 13.8061C8.77745 13.9055 8.96144 13.9735 9.06411 14.0099C9.16681 14.0464 9.3244 14.0946 9.53631 14.1543C9.74868 14.214 9.93911 14.2555 10.1081 14.2788C10.2772 14.3017 10.4513 14.3135 10.6301 14.3135C11.2399 14.3135 11.8565 14.1444 12.4796 13.8064C13.1489 13.4353 13.5531 13.0839 13.6923 12.7522C13.7655 12.5867 13.8349 12.3596 13.9011 12.0712C13.9676 11.7829 14.0006 11.5493 14.0006 11.3703C14.0008 11.2772 13.9908 11.2077 13.9709 11.1609Z" fill="#337D5A"/>
</g>
<defs>
<clipPath id="clip0_285_131">
<rect width="14" height="14" fill="white" transform="translate(0 0.313477)"/>
</clipPath>
</defs>
</svg>
