<svg width="323" height="293" viewBox="0 0 323 293" fill="none" xmlns="http://www.w3.org/2000/svg">
<path d="M161.446 0.00698746C247.256 -0.76676 322.162 62.8095 322.445 145.858C322.729 225.941 253.345 292.87 161.871 292.999C68.1314 293.257 0.588091 224.394 0.446491 146.632C0.30489 64.228 74.7866 -0.76676 161.446 0.00698746ZM215.112 188.028C216.812 189.059 217.095 189.446 217.52 189.575C243.999 194.862 269.912 193.315 295.683 185.577C299.365 184.417 300.781 182.096 301.489 179.001C307.861 155.272 307.436 131.802 299.789 108.461C298.657 104.979 297.099 103.56 292.851 104.463C274.868 108.461 256.46 109.234 238.052 107.558C233.096 107.171 230.972 108.332 229.131 112.329C224.033 124.193 217.236 135.155 208.457 145.214C207.608 146.245 207.183 147.664 206.192 149.469C218.228 149.34 227.29 153.08 230.264 163.397C233.52 175.003 227.856 183.127 215.112 188.028ZM17.5801 135.155C17.2969 138.121 16.7305 140.442 16.8721 142.634C17.5801 152.048 18.7129 161.462 19.4209 170.876C19.7041 175.648 22.5361 177.84 27.2089 179.516C62.7506 191.767 98.1507 191.767 133.551 179.258C137.374 177.84 141.056 176.035 145.445 174.229C143.888 172.682 143.038 171.65 142.047 170.876C131.427 162.494 122.647 152.822 114.718 142.248C110.611 136.831 110.611 136.831 103.248 138.379C84.4154 142.248 65.441 142.892 46.325 140.313C37.121 139.024 27.9169 137.089 17.5801 135.155ZM217.095 267.981C215.396 266.692 214.829 266.176 214.263 265.918C193.306 259.599 181.695 245.93 178.721 226.457C177.305 216.785 177.73 206.855 177.872 196.926C177.872 194.218 177.447 192.541 174.756 191.252C170.225 189.059 165.836 185.191 161.163 184.804C156.915 184.546 152.242 188.157 147.852 189.962C147.428 190.091 147.003 190.349 146.578 190.478C143.604 191.509 143.18 193.315 143.18 196.023C143.321 204.405 143.888 212.787 142.613 221.041C139.356 241.803 127.745 256.891 104.381 262.823C102.965 263.21 101.691 263.984 99.1419 265.144C138.507 281.264 177.022 282.167 217.095 267.981ZM28.3417 196.023C29.1913 198.602 29.4745 199.892 30.0409 201.052C37.5458 216.14 48.3074 228.778 60.6266 240.9C68.5562 248.767 77.7602 250.701 88.5218 250.185C109.479 249.154 122.081 239.611 126.046 221.299C127.604 213.819 129.02 206.211 126.046 197.957C93.6194 205.953 61.6178 205.566 28.3417 196.023ZM291.577 202.6C274.301 206.598 258.442 207.887 242.441 207.5C226.157 207.113 210.581 203.889 194.156 199.505C193.306 210.853 192.881 220.912 196.704 230.971C200.952 241.932 208.74 249.54 221.201 251.991C227.715 253.28 234.795 253.28 241.45 253.151C244.424 253.022 247.822 251.733 250.371 250.056C266.655 238.708 279.399 224.394 289.311 208.145C290.019 206.726 290.444 205.308 291.577 202.6ZM198.828 82.4111C223.042 95.4358 275.293 96.3385 290.444 88.3431C279.965 65.1307 251.079 38.5654 225.732 29.4094C222.051 38.3075 218.794 47.4635 214.404 56.2326C209.873 65.0018 204.209 73.384 198.828 82.4111ZM90.3626 33.0202C54.5378 47.9793 22.3945 92.8567 21.4033 119.422C35.2802 125.096 58.6442 128.191 65.441 125.354C64.5914 124.838 63.8834 124.193 63.1754 123.678C53.6882 116.714 51.4226 106.655 57.2282 98.015C63.317 88.9879 74.645 86.4088 85.6898 91.3092C87.2474 91.954 88.805 92.5987 91.637 93.7594C86.8226 72.9971 87.1058 53.5245 90.3626 33.0202ZM128.17 132.06C128.453 132.963 128.453 133.736 128.736 134.123C136.808 145.343 146.861 155.014 158.189 163.526C161.021 165.718 163.145 164.686 165.694 163.01C186.651 148.953 202.227 131.028 212.847 109.363C213.555 107.816 213.98 106.268 214.546 104.334C206.9 101.755 199.536 99.8204 192.598 96.8544C188.067 94.92 185.518 95.8227 182.261 98.7887C167.535 112.2 150.684 122.646 131.568 129.997C130.294 130.512 129.303 131.415 128.17 132.06ZM171.216 87.1825C144.596 71.8365 124.913 51.8481 110.045 27.475C100.558 58.8118 103.531 88.73 118.966 118.39C138.79 111.298 155.782 101.626 171.216 87.1825ZM198.404 50.0426C203.36 43.3368 205.908 35.8573 208.174 28.2488C209.873 22.4457 209.732 22.1877 203.501 20.5113C181.27 14.3213 158.614 13.2896 135.816 16.7715C132.56 17.2873 129.303 18.448 125.338 19.4796C133.976 35.0835 144.454 48.1083 158.614 58.6828C154.508 49.011 153.941 39.9839 163.145 32.7623C169.8 27.475 177.872 26.8302 185.66 30.0542C194.864 33.794 198.262 41.0156 198.404 50.0426ZM192.173 172.166C197.554 176.034 203.501 177.84 209.873 177.969C214.263 178.098 217.378 175.648 219.077 171.908C220.635 168.297 219.36 165.202 216.387 162.494C213.272 159.657 209.59 159.528 205.908 161.075C200.386 163.526 195.713 167.007 192.173 172.166ZM180.704 63.8411C184.102 57.6512 188.35 52.106 186.084 45.0133C184.527 39.9839 178.863 37.4048 174.048 38.9523C168.384 40.7577 165.694 45.6581 168.101 50.6874C170.65 56.1037 174.615 60.4882 180.704 63.8411ZM90.7874 117.101C89.3714 110.782 87.1058 105.752 82.7162 101.755C79.4594 98.9177 75.2114 98.2729 71.6714 99.9493C68.1314 101.626 65.8658 104.205 66.149 108.203C66.2906 112.329 68.5562 115.037 72.8042 116.327C78.3266 118.003 84.1322 118.261 90.7874 117.101Z" fill="white" fill-opacity="0.06"/>
</svg>
