<svg width="18" height="18" viewBox="0 0 18 18" fill="none" xmlns="http://www.w3.org/2000/svg">
<path d="M16.9232 16.1065C16.793 15.6621 14.6732 7.72638 14.3848 6.64644C14.0976 5.56702 13.3466 5.27838 12.5007 5.27838C12.209 5.27838 11.084 5.27838 9.7431 5.27838V4.28109C14.872 3.80376 16.2399 0 16.2399 0H1.41987C1.41987 0 2.56685 4.01798 8.05123 4.30307V5.27782C6.80345 5.27782 5.77595 5.27782 5.49913 5.27782C4.65317 5.27782 3.90281 5.56645 3.61469 6.64592C3.32681 7.72586 1.20726 15.6615 1.07682 16.106C0.914227 16.663 0.964768 17.3903 2.09823 17.3903C2.22323 17.3903 2.50667 17.3903 2.90764 17.3903V18H14.9533V17.3908C15.4235 17.3908 15.7624 17.3908 15.9004 17.3908C17.0353 17.3908 17.0858 16.6635 16.9232 16.1065ZM9.00016 6.30887C11.7772 6.30887 14.0272 8.55778 14.0272 11.3346C14.0272 14.1113 11.7772 16.3608 9.00016 16.3608C6.2242 16.3608 3.97415 14.1114 3.97415 11.3346C3.97415 8.55773 6.22415 6.30887 9.00016 6.30887Z" fill="#337D5A"/>
<path d="M6.11465 9.12252L5.59884 8.75531L5.44641 8.96901L5.9548 9.3296C6.00203 9.25703 6.06051 9.19226 6.11465 9.12252Z" fill="#337D5A"/>
<path d="M7.53321 7.9964L7.25199 7.42787L7.01636 7.54489L7.30306 8.12197C7.38026 8.08098 7.45331 8.03266 7.53321 7.9964Z" fill="#337D5A"/>
<path d="M5.34997 11.3346C5.34997 11.3049 5.35848 11.2781 5.35957 11.2489H4.7196V11.511H5.36808C5.3659 11.4511 5.34997 11.395 5.34997 11.3346Z" fill="#337D5A"/>
<path d="M12.9446 9.41086L12.8188 9.18175L12.1613 9.54159C12.203 9.61629 12.2475 9.69321 12.286 9.77065L12.9446 9.41086Z" fill="#337D5A"/>
<path d="M11.4179 7.72094L11.1927 7.58582L10.8285 8.19226C10.9038 8.23675 10.9845 8.27216 11.0581 8.32109L11.4179 7.72094Z" fill="#337D5A"/>
<path d="M9.19651 7.70472V7.03123H8.9342V7.69096C8.95619 7.69096 8.97761 7.68491 8.99959 7.68491C9.06767 7.68491 9.13003 7.70113 9.19651 7.70472Z" fill="#337D5A"/>
<path d="M11.1158 15.216L10.7654 14.5097C10.6895 14.553 10.6143 14.5997 10.5352 14.636L10.8796 15.3325L11.1158 15.216Z" fill="#337D5A"/>
<path d="M12.6857 13.7912L12.0469 13.3374C11.9996 13.411 11.9403 13.4758 11.8876 13.5445L12.533 14.0043L12.6857 13.7912Z" fill="#337D5A"/>
<path d="M12.6507 11.3346C12.6507 11.3945 12.6364 11.4511 12.6337 11.5104H13.4137V11.2484H12.643C12.6424 11.2786 12.6507 11.3049 12.6507 11.3346Z" fill="#337D5A"/>
<path d="M8.9342 14.9782V15.7258H9.19651V14.9644C9.13003 14.9677 9.06767 14.9842 8.99959 14.9842C8.97761 14.9842 8.95619 14.9782 8.9342 14.9782Z" fill="#337D5A"/>
<path d="M5.78143 13.0198L5.18567 13.3439L5.31176 13.5736L5.9053 13.2506C5.86024 13.1753 5.82152 13.0979 5.78143 13.0198Z" fill="#337D5A"/>
<path d="M7.3116 14.552C7.23331 14.5107 7.15502 14.4712 7.08032 14.4262L6.71362 15.0359L6.93857 15.171L7.3116 14.552Z" fill="#337D5A"/>
<path d="M7.46118 13.89L7.66306 14.0043L8.92758 11.8889C8.9792 11.9004 9.02705 11.9202 9.0817 11.9202C9.52603 11.9202 9.88535 11.5604 9.88535 11.1171C9.88535 10.6732 9.52603 10.3135 9.0817 10.3135C8.63894 10.3135 8.27887 10.6732 8.27887 11.1171C8.27887 11.3709 8.40387 11.5873 8.58788 11.7356L7.46118 13.89ZM9.08218 10.8874C9.21049 10.8874 9.3129 10.9908 9.3129 11.1171C9.3129 11.244 9.20992 11.3477 9.08218 11.3477C8.95504 11.3477 8.85311 11.244 8.85311 11.1171C8.85311 10.9907 8.95504 10.8874 9.08218 10.8874Z" fill="#337D5A"/>
</svg>
