<svg width="82" height="32" viewBox="0 0 82 32" fill="none" xmlns="http://www.w3.org/2000/svg">
<path d="M4.13445 0.559814C4.13445 0.559814 0 1.40249 0 5.65591C0 9.90895 0 31.6729 0 31.6729C0 31.6729 0.459071 26.4316 4.13445 26.4316H82L74.0596 13.0347L82 0.559814H4.13445Z" fill="#E1843E"/>
<path d="M18.79 10.5714V17.6714H17.15V14.7614H14.32V17.6714H12.68V10.5714H14.32V13.3214H17.15V10.5714H18.79ZM23.8607 17.7314C23.3274 17.7314 22.844 17.6314 22.4107 17.4314C21.984 17.2247 21.614 16.9514 21.3007 16.6114C20.994 16.2647 20.7574 15.8781 20.5907 15.4514C20.424 15.0181 20.3407 14.5714 20.3407 14.1114C20.3407 13.6381 20.4274 13.1881 20.6007 12.7614C20.7807 12.3347 21.0274 11.9547 21.3407 11.6214C21.6607 11.2814 22.0374 11.0147 22.4707 10.8214C22.904 10.6281 23.3774 10.5314 23.8907 10.5314C24.4174 10.5314 24.894 10.6347 25.3207 10.8414C25.754 11.0414 26.124 11.3147 26.4307 11.6614C26.744 12.0081 26.984 12.3981 27.1507 12.8314C27.3174 13.2581 27.4007 13.6947 27.4007 14.1414C27.4007 14.6147 27.314 15.0647 27.1407 15.4914C26.9674 15.9181 26.7207 16.3014 26.4007 16.6414C26.0807 16.9747 25.704 17.2414 25.2707 17.4414C24.844 17.6347 24.374 17.7314 23.8607 17.7314ZM22.0107 14.1314C22.0107 14.4047 22.0507 14.6714 22.1307 14.9314C22.2107 15.1847 22.3274 15.4114 22.4807 15.6114C22.6407 15.8114 22.8374 15.9714 23.0707 16.0914C23.304 16.2114 23.5707 16.2714 23.8707 16.2714C24.184 16.2714 24.4574 16.2114 24.6907 16.0914C24.924 15.9647 25.1174 15.7981 25.2707 15.5914C25.424 15.3847 25.5374 15.1547 25.6107 14.9014C25.6907 14.6414 25.7307 14.3781 25.7307 14.1114C25.7307 13.8381 25.6907 13.5747 25.6107 13.3214C25.5307 13.0681 25.4107 12.8414 25.2507 12.6414C25.0907 12.4347 24.894 12.2747 24.6607 12.1614C24.4274 12.0481 24.164 11.9914 23.8707 11.9914C23.5574 11.9914 23.284 12.0514 23.0507 12.1714C22.824 12.2914 22.6307 12.4547 22.4707 12.6614C22.3174 12.8614 22.2007 13.0914 22.1207 13.3514C22.0474 13.6047 22.0107 13.8647 22.0107 14.1314ZM34.8184 15.8514C34.8184 16.2581 34.7084 16.5981 34.4884 16.8714C34.275 17.1381 33.985 17.3381 33.6184 17.4714C33.2517 17.6047 32.8484 17.6714 32.4084 17.6714H28.9484V10.5714H32.8984C33.2317 10.5714 33.5184 10.6614 33.7584 10.8414C34.005 11.0147 34.1917 11.2414 34.3184 11.5214C34.4517 11.8014 34.5184 12.0914 34.5184 12.3914C34.5184 12.7247 34.4317 13.0447 34.2584 13.3514C34.085 13.6514 33.8317 13.8781 33.4984 14.0314C33.905 14.1514 34.225 14.3647 34.4584 14.6714C34.6984 14.9781 34.8184 15.3714 34.8184 15.8514ZM33.1484 15.5214C33.1484 15.3681 33.1184 15.2347 33.0584 15.1214C32.9984 15.0014 32.9184 14.9081 32.8184 14.8414C32.725 14.7681 32.6117 14.7314 32.4784 14.7314H30.5884V16.2814H32.4084C32.5484 16.2814 32.6717 16.2481 32.7784 16.1814C32.8917 16.1147 32.9817 16.0247 33.0484 15.9114C33.115 15.7981 33.1484 15.6681 33.1484 15.5214ZM30.5884 11.9714V13.4414H32.1984C32.3184 13.4414 32.4284 13.4147 32.5284 13.3614C32.635 13.3081 32.7217 13.2281 32.7884 13.1214C32.855 13.0081 32.8884 12.8681 32.8884 12.7014C32.8884 12.5414 32.8584 12.4081 32.7984 12.3014C32.745 12.1947 32.6717 12.1147 32.5784 12.0614C32.485 12.0014 32.3784 11.9714 32.2584 11.9714H30.5884ZM36.4243 17.6714V10.5714H38.0643V15.3414L41.1243 10.5714H42.6543V17.6714H41.0143V12.9314L37.9943 17.6714H36.4243ZM50.7701 10.5714V17.6714H49.1301V14.7614H46.3001V17.6714H44.6601V10.5714H46.3001V13.3214H49.1301V10.5714H50.7701ZM52.7608 17.6714V10.5714H54.3908V13.3214H54.9508L56.9308 10.5714H58.7508L56.2108 14.0014L58.9708 17.6714H56.9808L54.9008 14.8114H54.3908V17.6714H52.7608ZM62.2106 10.5714H63.9806L66.4206 17.6714H64.7406L64.1906 16.0814H61.9806L61.4406 17.6714H59.7606L62.2106 10.5714ZM63.9206 14.9514L63.0906 12.2214L62.2406 14.9514H63.9206Z" fill="white"/>
</svg>
